<svg id="Layer_1" data-name="Layer 1" xmlns="http://www.w3.org/2000/svg" viewBox="0 0 65.4 21.6"><defs><style>.cls-1{fill:#e5007e;}.cls-1,.cls-2{fill-rule:evenodd;}.cls-2,.cls-3{fill:#fff;}</style></defs><path class="cls-1" d="M7.8,13.1a5.53,5.53,0,0,1-1.8.3c-2.7,0-3.5-2.8-3.5-4.7H8C8,7.4,7.7,5,4.4,5,1.8,5,.3,6.3.3,9.4s1.8,5,4.8,5a8,8,0,0,0,2.7-.5Zm5.1,0a5.53,5.53,0,0,0,1.8.3c2.7,0,3.5-2.8,3.5-4.7H12.7c0-1.3.3-3.7,3.6-3.7,2.6,0,4.1,1.3,4.1,4.4s-1.8,5-4.8,5a8,8,0,0,1-2.7-.5ZM2.5,8c0-.7.4-2.3,1.9-2.3S6.1,7.6,6.1,8ZM18.3,8c0-.7-.4-2.3-1.9-2.3-1.7,0-1.7,1.8-1.7,2.3Zm-6.8,6.3h0V.7l-3.4.5v.4c1.1,0,1.5.4,1.5,1.8v11h0v3.1a3.79,3.79,0,0,0,2.7,3.7l2-.8a5.66,5.66,0,0,1-2.1-1.3,3.55,3.55,0,0,1-.7-1.7Z"/><path class="cls-2" d="M24.3,9.6c0-1,.2-3.5,1.9-3.5s1.9,2.1,1.9,3.5-.2,3.8-1.9,3.8-1.9-2-1.9-3.1Zm-1.9,8.7h1.9V13.1h0a2.44,2.44,0,0,0,2.4,1.4c2.8,0,3.5-2.5,3.5-4.9S29.3,5,26.8,5a3.3,3.3,0,0,0-2.5,1.6h0V5.1l-3.5.6v.4c1.2,0,1.5.4,1.5,1.7Zm9.4-4h1.9V9.7c0-1.8,1.2-3.3,2.3-3.3,1.4,0,1.4,1.3,1.4,2.2v5.7h1.9v-6c0-1.4-.2-3.2-2.4-3.2a3.55,3.55,0,0,0-3.2,2.5h0V.7l-3.5.5v.4c1.2.1,1.5.4,1.5,1.8Zm14,0h1.9V8.4c0-1.9-.4-3.3-3.2-3.3s-3.4,1.4-3.7,2.6h2.3c0-.8.1-2,1.4-2s1.2,1.4,1.2,2.6v1c-1.2,0-5.1.2-5.1,3a2.44,2.44,0,0,0,2.6,2.2,3,3,0,0,0,2.5-1.4Zm0-3.2c0,1.3-.7,2.4-1.8,2.4-.7,0-1.2-.6-1.2-1.5,0-1.9,2.3-2,3-2Zm4.4,3.2h1.9V9.6c0-1.4,1.1-3.2,2.4-3.2s1.3,1.4,1.3,2.9v5h1.9V7.8c0-1.5-.6-2.7-2.3-2.7a3.66,3.66,0,0,0-3.2,2.5h0V5.1l-3.5.6v.4c1.2,0,1.6.4,1.6,1.7Zm14.6-.7a1.66,1.66,0,0,1-.7.1c-1.5,0-1.6-.6-1.6-2V6.1H65V5.3H62.5V2L60.6,3.7V5.3H59.1v.8h1.5v6c0,2.2,1.1,2.5,3,2.5.4,0,.9-.1,1.3-.1Z"/><path class="cls-3" d="M65.1.8a.63.63,0,0,1-.1.4.49.49,0,0,1-.68,0l0,0C64.1,1,64,.9,64,.8V.6c0-.1.1-.1.1-.2a.37.37,0,0,1,.3-.1h.2c.1,0,.3.1.3.2S65.1.7,65.1.8ZM64.5.3a.37.37,0,0,0-.3.1.37.37,0,0,0-.1.3.37.37,0,0,0,.1.3.51.51,0,0,0,.6,0A.22.22,0,0,0,65,.8V.6c0-.1-.1-.1-.1-.2S64.7.3,64.5.3Zm.1.5.2.2h-.1L64.5.8V1h-.1V.5h.3l.1.1V.7C64.7.7,64.7.8,64.6.8ZM64.5.7h0c.1,0,.1,0,.1-.1s0-.1-.1-.1h0Z"/><path class="cls-3" d="M31.77,15.53h.53v2.3h.78v.51H31.77Z"/><path class="cls-3" d="M35,15.53h.55l1.08,2.81h-.55l-.22-.58H34.68l-.23.58h-.56Zm.28.74-.37,1h.74Z"/><path class="cls-3" d="M37.64,15.53h.51l1.21,1.85V15.53h.54v2.81h-.52l-1.2-1.85v1.85h-.54Z"/><path class="cls-3" d="M43.74,17.87a1.55,1.55,0,0,1-1.22.54A1.41,1.41,0,0,1,41,16.93a1.45,1.45,0,0,1,1.49-1.48,1.63,1.63,0,0,1,1.23.57l-.37.36a1.17,1.17,0,0,0-.87-.41,1,1,0,0,0-1,1,.93.93,0,0,0,1,1,1.14,1.14,0,0,0,.86-.41Z"/><path class="cls-3" d="M45.7,15.53h.54l1.09,2.81h-.56l-.22-.58H45.4l-.23.58h-.55Zm.28.74-.38,1h.75Z"/><path class="cls-3" d="M48.57,17.53c.13.24.28.37.47.37a.31.31,0,0,0,.33-.26.46.46,0,0,0-.18-.32c-.59-.49-.93-.75-.93-1.16a.75.75,0,0,1,.77-.71,1,1,0,0,1,.81.46l-.39.35A.57.57,0,0,0,49,16c-.14,0-.24.08-.24.19a.35.35,0,0,0,.17.26c.52.46.94.68.94,1.19a.79.79,0,0,1-.86.8,1,1,0,0,1-.91-.61Z"/><path class="cls-3" d="M50.75,15.53h1.56v.52h-.52v2.29h-.54V16.05h-.5Z"/><path class="cls-3" d="M53.3,15.53h1.54v.52h-1v.5h1v.53h-1v.74h1v.52H53.3Z"/><path class="cls-3" d="M56,15.53h.65a1.08,1.08,0,0,1,.8.22.82.82,0,0,1,.22.59.74.74,0,0,1-.54.75l.67,1.25h-.58l-.64-1.19h0v1.19H56Zm.53,1.1h.25c.24,0,.37-.1.37-.29s-.13-.29-.39-.29h-.23Z"/></svg>